<?xml version="1.0" encoding="utf-8"?>
<!-- Generator: Adobe Illustrator 24.3.0, SVG Export Plug-In . SVG Version: 6.00 Build 0)  -->
<svg version="1.1" id="b85b6090-e265-40b4-b5a6-f759bbd384f1"
	 xmlns="http://www.w3.org/2000/svg" xmlns:xlink="http://www.w3.org/1999/xlink" x="0px" y="0px" viewBox="0 0 753.9 703.8"
	 style="enable-background:new 0 0 753.9 703.8;" xml:space="preserve">
<style type="text/css">
	.st0{fill:#E9EAF0;}
	.st1{fill:#FFFFFF;}
	.st2{fill:#DD7153;}
	.st3{fill:#222747;}
</style>
<path class="st0" d="M355.4,5.9l-23.1,12.6L48.1,173.5l-23.1,12.6c-23.3,12.8-31.9,42-19.2,65.3l211.6,387.9
	c12.8,23.3,42,31.9,65.3,19.2l0.1,0l330.2-180.2l0.1,0c23.3-12.8,31.9-42,19.2-65.3L420.7,25.1C408,1.8,378.7-6.8,355.4,5.9z"/>
<path class="st1" d="M362,18l-27.3,14.9L59,183.4l-27.3,14.9C15.1,207.4,9,228.2,18,244.8l211.6,387.9c9.1,16.6,29.9,22.7,46.5,13.7
	l0.1,0l330.2-180.2l0.1,0c16.6-9.1,22.7-29.9,13.7-46.5L408.5,31.7C399.5,15.1,378.7,9,362,18z"/>
<path class="st0" d="M366.6,138.4l-123.2,67.2c-3.9,2.1-8.8,0.7-10.9-3.2s-0.7-8.8,3.2-10.9l0,0l123.2-67.2
	c3.9-2.1,8.8-0.7,10.9,3.2C371.9,131.4,370.5,136.3,366.6,138.4L366.6,138.4z"/>
<path class="st0" d="M408.6,146.3l-152.2,83c-3.9,2.1-8.8,0.7-10.9-3.2s-0.7-8.8,3.2-10.9l0,0l152.2-83c3.9-2.1,8.8-0.7,10.9,3.2
	C413.9,139.4,412.5,144.2,408.6,146.3L408.6,146.3z"/>
<path class="st0" d="M192.8,177.7l-113.5,62c-1.9,1-2.5,3.3-1.5,5.2l48.4,88.6c1,1.9,3.3,2.5,5.2,1.5l113.5-62
	c1.9-1,2.5-3.3,1.5-5.2L198,179.2C197,177.3,194.7,176.6,192.8,177.7z"/>
<path class="st0" d="M427.7,250.9L260.7,342c-3.9,2.1-8.8,0.7-10.9-3.2s-0.7-8.8,3.2-10.9l0,0L420,236.8c3.9-2.1,8.8-0.7,10.9,3.2
	C433,243.9,431.6,248.8,427.7,250.9L427.7,250.9z"/>
<path class="st0" d="M469.7,258.8l-196.1,107c-3.9,2.1-8.8,0.7-10.9-3.2s-0.7-8.8,3.2-10.9l0,0l196.1-107c3.9-2.1,8.8-0.7,10.9,3.2
	C475,251.8,473.6,256.7,469.7,258.8L469.7,258.8z"/>
<circle class="st0" cx="197" cy="382.7" r="34"/>
<path class="st0" d="M705.7,165.7H329.4c-26.6,0-48.1,21.6-48.1,48.1v441.9c0,26.6,21.6,48.1,48.1,48.1h376.3
	c26.6,0,48.1-21.6,48.1-48.1V213.8C753.8,187.3,732.3,165.7,705.7,165.7z"/>
<path class="st1" d="M705.8,179.6H329.4c-18.9,0-34.2,15.4-34.3,34.3v441.9c0,18.9,15.4,34.2,34.3,34.3h376.3
	c18.9,0,34.2-15.4,34.3-34.3V213.8C740,194.9,724.7,179.6,705.8,179.6z"/>
<path class="st2" d="M652.1,287.4H511.8c-4.4,0-8-3.6-8-8c0-4.4,3.6-8,8-8h140.3c4.4,0,8,3.6,8,8
	C660.1,283.8,656.5,287.4,652.1,287.4C652.1,287.4,652.1,287.4,652.1,287.4z"/>
<path class="st2" d="M685.1,314.5H511.8c-4.4,0-8-3.6-8-8c0-4.4,3.6-8,8-8h173.4c4.4,0,8,3.6,8,8
	C693.2,310.9,689.6,314.5,685.1,314.5z"/>
<path class="st0" d="M480.7,238.6H351.4c-2.1,0-3.8,1.7-3.8,3.8v101c0,2.1,1.7,3.8,3.8,3.8h129.4c2.1,0,3.8-1.7,3.8-3.8v-101
	C484.6,240.3,482.9,238.6,480.7,238.6z"/>
<path class="st3" d="M386.9,300.6c0.1,8.5-3.1,16.8-8.8,23.1c-5.7,6.2-14.1,10.3-22.6,8.6c-7.8-1.6-14.2-8.4-13.4-16.7
	c0.5-6.8,6.4-11.9,13.2-11.4c0.7,0.1,1.4,0.2,2,0.3c7.4,1.9,10.4,12.6,4.2,17.7c-1.5,1.2-3.6-0.9-2.1-2.1c4.1-3.3,2.8-10.6-2.1-12.4
	c-5.8-2.1-11.8,2.4-12.3,8.3c-0.5,7,4.9,12.2,11.4,13.5c7.1,1.3,14.1-2.3,18.9-7.3c5.5-5.8,8.5-13.5,8.5-21.5c0-0.8,0.7-1.5,1.6-1.4
	C386.2,299.2,386.8,299.8,386.9,300.6L386.9,300.6z"/>
<circle class="st2" cx="416.2" cy="266.2" r="53.5"/>
<path class="st3" d="M413.4,289l-0.1-2c3.7-0.1,7-0.3,9.5-2.1c1.4-1.1,2.3-2.7,2.4-4.5c0.1-1.1-0.3-2.2-1.2-2.9
	c-1.6-1.4-4.3-0.9-6.2-0.1l-1.7,0.8l3.2-23.2l2,0.3l-2.7,19.7c2.6-0.8,5-0.4,6.7,1c1.3,1.1,2,2.8,1.9,4.5c-0.1,2.4-1.3,4.6-3.2,6.1
	C420.8,288.8,416.7,288.9,413.4,289z"/>
<rect x="431.2" y="256.9" class="st3" width="10.8" height="2"/>
<rect x="397.2" y="256.9" class="st3" width="10.8" height="2"/>
<path class="st3" d="M386.5,347.3c4-2.5,8.3-4.5,12.9-5.9c-0.4-1.5-0.4-3.2,0-4.7c1.2-4,5-6.7,9.1-6.6h13c4.2-0.1,7.9,2.6,9.2,6.6
	c0.4,1.5,0.5,3.2,0,4.7c4.5,1.4,8.9,3.4,12.9,5.9L386.5,347.3z"/>
<path class="st3" d="M477.5,246.3c-1-1.2-2.2-2.2-3.5-2.9c-1.2-0.6-2.5-0.9-3.9-1c-1.8,0-3.6,0.6-5.1,1.7c-4.1,2.9-6.9,9.1-6.9,16.3
	c0,9,4.4,16.5,10.2,17.8c0.6,0.1,1.2,0.2,1.8,0.2c6.6,0,12-8.1,12-18C482.1,254.7,480.3,249.6,477.5,246.3z"/>
<path class="st3" d="M367.5,243.8L367.5,243.8c-1.3-0.8-2.9-1.3-4.5-1.3c-1.3,0-2.7,0.3-3.9,1c-1.4,0.7-2.6,1.7-3.5,2.9l0,0
	c-2.8,3.3-4.6,8.4-4.6,14.2c0,7.8,3.3,14.4,7.9,16.9c1.3,0.7,2.7,1.1,4.1,1.1c0.3,0,0.6,0,1-0.1h0c6.2-0.7,11-8.5,11-17.9
	C375.1,252.9,371.9,246.4,367.5,243.8z"/>
<path class="st3" d="M359.7,275.7c0.8,0,1.5-0.7,1.5-1.5c0-0.2,0-0.3-0.1-0.5c-10.3-30.6,6.2-63.8,36.8-74.1
	c30.6-10.3,63.8,6.2,74.1,36.8c3.3,9.9,3.9,20.5,1.8,30.7c-0.2,0.8,0.3,1.6,1.2,1.8s1.6-0.3,1.8-1.2l0,0c7-33.2-14.2-65.9-47.5-72.9
	c-33.2-7-65.9,14.2-72.9,47.5c-2.3,10.7-1.6,21.9,1.9,32.3C358.5,275.3,359.1,275.7,359.7,275.7z"/>
<path class="st3" d="M443,231.5c2.1,2.9,1.1,6.8-1.2,9.3c-2.9,3.2-7.5,3.5-11.6,2.8c-4.5-0.7-9.3-2.8-13.9-1.4
	c-3.9,1.2-6.7,4.7-10.7,5.6c-3.6,0.8-7.9-0.3-9.1-4.1c-0.6-1.8,2.3-2.6,2.9-0.8c0.8,2.5,4.3,2.4,6.3,1.7c3.2-1.1,5.7-3.8,8.9-5
	c3.7-1.5,7.8-0.8,11.6,0c3.6,0.8,7.7,2,11.3,0.5c2.6-1.1,4.7-4.6,2.8-7.2C439.3,231.4,441.9,229.9,443,231.5L443,231.5z"/>
<path class="st0" d="M651.9,415.4H461.6c-4.4,0-8-3.6-8-8c0-4.4,3.6-8,8-8h190.3c4.4,0,8,3.6,8,8
	C659.9,411.8,656.3,415.4,651.9,415.4z"/>
<path class="st0" d="M684.9,442.5H461.6c-4.4,0-8-3.6-8-8c0-4.4,3.6-8,8-8h223.4c4.4,0,8,3.6,8,8
	C692.9,438.9,689.4,442.5,684.9,442.5z"/>
<path class="st0" d="M651.9,512.6H461.6c-4.4,0-8-3.6-8-8s3.6-8,8-8c0,0,0,0,0,0h190.3c4.4,0,8,3.6,8,8
	C659.9,509,656.3,512.6,651.9,512.6C651.9,512.6,651.9,512.6,651.9,512.6z"/>
<path class="st0" d="M684.9,539.7H461.6c-4.4,0-8-3.6-8-8c0-4.4,3.6-8,8-8h223.4c4.4,0,8,3.6,8,8
	C692.9,536.1,689.4,539.7,684.9,539.7z"/>
<circle class="st0" cx="386.2" cy="420.6" r="34"/>
<circle class="st0" cx="386.2" cy="518.6" r="34"/>
<path class="st0" d="M651.9,610.6H461.6c-4.4,0-8-3.6-8-8s3.6-8,8-8c0,0,0,0,0,0h190.3c4.4,0,8,3.6,8,8
	C659.9,607,656.3,610.6,651.9,610.6C651.9,610.6,651.9,610.6,651.9,610.6z"/>
<path class="st0" d="M684.9,637.7H461.6c-4.4,0-8-3.6-8-8c0-4.4,3.6-8,8-8h223.4c4.4,0,8,3.6,8,8
	C692.9,634.1,689.4,637.7,684.9,637.7z"/>
<circle class="st0" cx="386.2" cy="616.6" r="34"/>
</svg>
