<?xml version="1.0" encoding="utf-8"?>
<!-- Generator: Adobe Illustrator 24.3.0, SVG Export Plug-In . SVG Version: 6.00 Build 0)  -->
<svg version="1.1" id="a5f74472-7ecd-48f3-bbcf-6d4dac68fd10"
	 xmlns="http://www.w3.org/2000/svg" xmlns:xlink="http://www.w3.org/1999/xlink" x="0px" y="0px" viewBox="0 0 698 631.5"
	 style="enable-background:new 0 0 698 631.5;" xml:space="preserve">
<style type="text/css">
	.st0{fill:#FFFFFF;}
	.st1{fill:#DD7153;}
	.st2{fill:#222747;}
	.st3{fill:#2F2E41;}
	.st4{fill:#E9EAF0;}
	.st5{fill:#F2F2F2;}
</style>
<path class="st0" d="M305.1,522.3H13.8c-7.6,0-13.8-6.2-13.8-13.8V113.1c0-7.6,6.2-13.8,13.8-13.8h291.2c7.6,0,13.8,6.2,13.8,13.8
	v395.3C318.9,516.1,312.7,522.2,305.1,522.3z"/>
<path class="st0" d="M146.3,202.1c0,23.4-15.1,44.2-37.3,51.4c-0.3,0.1-0.6,0.2-1,0.3c-1.4,0.4-2.8,0.8-4.3,1.1
	c-2.6,0.6-5.3,0.9-8,1.1c-1.2,0.1-2.3,0.1-3.5,0.1c-6.1,0-12.1-1-17.9-3c-0.2-0.1-0.3-0.1-0.5-0.2c-28.1-10.1-42.7-41.2-32.5-69.3
	c10.1-28.1,41.2-42.7,69.3-32.5C132,159,146.3,179.3,146.3,202.1L146.3,202.1z"/>
<circle class="st1" cx="90.9" cy="211.7" r="26.3"/>
<path class="st2" d="M92.5,225.8l0-1c-1.8-0.1-3.4-0.2-4.7-1.1c-0.7-0.5-1.1-1.3-1.2-2.2c0-0.5,0.2-1.1,0.6-1.4c0.9-0.6,2.1-0.6,3,0
	l0.8,0.4l-1.6-11.4l-1,0.1l1.3,9.7c-1.1-0.4-2.3-0.2-3.3,0.5c-0.6,0.6-1,1.4-0.9,2.2c0.1,1.2,0.6,2.3,1.6,3
	C88.8,225.7,90.8,225.8,92.5,225.8z"/>
<rect x="78.4" y="210.1" class="st2" width="5.3" height="1"/>
<rect x="95.2" y="210.1" class="st2" width="5.3" height="1"/>
<path class="st2" d="M98.4,248.4c0.1-0.3,0.1-0.7,0.1-1c0-2.6-2.1-4.7-4.7-4.7H87c-2.6,0-4.7,2.1-4.7,4.7c0,0.3,0,0.7,0.1,1
	c-2.6,0.8-5.1,2-7.3,3.6c-0.4,0.3-0.9,0.6-1.3,1c0.2,0.1,0.3,0.1,0.5,0.2c5.7,2,11.8,3,17.9,3c1.2,0,2.4,0,3.5-0.1
	c2.7-0.2,5.3-0.5,8-1.1c1.5-0.3,2.9-0.7,4.3-1.1C105.2,251.4,101.9,249.6,98.4,248.4z"/>
<path class="st3" d="M97.5,255.5c-0.6,0-1.3,0.3-1.8,0.6c2.7-0.2,5.3-0.5,8-1.1L97.5,255.5z"/>
<path class="st2" d="M114.8,205.4l-45.7-16.7c-1-0.4-1.5-1.5-1.2-2.5l0.2-0.7c3.6-9.8,15.4-15.9,25.2-12.3l14.1,5.1
	c9.8,3.6,14,15.1,10.4,24.9l-0.4,1.1C116.9,205.3,115.8,205.8,114.8,205.4z"/>
<path class="st2" d="M117.3,206.3c-63.7,2.4-69.3-5.7-49.9-18.2l4.1-7.6l47.2,17.2L117.3,206.3z"/>
<ellipse transform="matrix(0.2879 -0.9577 0.9577 0.2879 -96.6379 221.7132)" class="st2" cx="100.8" cy="175.8" rx="2.2" ry="4.2"/>
<path class="st4" d="M92.2,257.7c-6.3,0-12.5-1-18.4-3.1l-0.5-0.2C44.5,244,29.5,212.1,40,183.3c10.4-28.9,42.3-43.8,71.1-33.4
	c28.9,10.4,43.8,42.3,33.4,71.1c-5.8,16.1-18.8,28.6-35.1,33.9c-0.3,0.1-0.7,0.2-1,0.3c-1.4,0.4-2.9,0.8-4.4,1.1
	c-2.7,0.6-5.4,1-8.2,1.1C94.6,257.7,93.4,257.7,92.2,257.7z M92.2,149.5c-29.1,0-52.6,23.6-52.6,52.6c0,22.2,13.9,41.9,34.7,49.5
	l0.5,0.2c5.6,2,11.5,3,17.4,2.9c1.1,0,2.3,0,3.4-0.1c2.6-0.2,5.2-0.5,7.8-1.1c1.4-0.3,2.8-0.7,4.2-1.1c0.3-0.1,0.6-0.2,1-0.3
	c27.6-9,42.7-38.7,33.7-66.3C135.2,164.2,115,149.5,92.2,149.5z"/>
<path class="st5" d="M18.6,368.4"/>
<path class="st4" d="M305.1,522.3H13.8c-7.6,0-13.8-6.2-13.8-13.8V113.1c0-7.6,6.2-13.8,13.8-13.8h291.2c7.6,0,13.8,6.2,13.8,13.8
	v395.3C318.9,516.1,312.7,522.2,305.1,522.3z M13.8,100.9c-6.7,0-12.2,5.5-12.2,12.2v395.3c0,6.7,5.5,12.2,12.2,12.2h291.2
	c6.7,0,12.2-5.5,12.2-12.2V113.1c0-6.7-5.5-12.2-12.2-12.2H13.8z"/>
<path class="st4" d="M248.7,201.9h-82.4c-3.6,0-6.5-2.9-6.5-6.5c0-3.6,2.9-6.5,6.5-6.5h82.4c3.6,0,6.5,2.9,6.5,6.5
	C255.2,199,252.3,201.9,248.7,201.9z"/>
<path class="st4" d="M275.6,223.9H166.3c-3.6,0-6.5-2.9-6.5-6.5c0-3.6,2.9-6.5,6.5-6.5h109.3c3.6,0,6.5,2.9,6.5,6.5
	C282.1,221,279.2,223.9,275.6,223.9z"/>
<path class="st4" d="M248.6,308.3H43.3c-3.6,0-6.5-2.9-6.5-6.5c0-3.6,2.9-6.5,6.5-6.5h205.2c3.6,0,6.5,2.9,6.5,6.5
	C255.1,305.4,252.2,308.3,248.6,308.3L248.6,308.3z"/>
<path class="st4" d="M275.4,330.3H43.3c-3.6,0-6.5-2.9-6.5-6.5c0-3.6,2.9-6.5,6.5-6.5h232.1c3.6,0,6.5,2.9,6.5,6.5
	C282,327.4,279,330.3,275.4,330.3z"/>
<path class="st4" d="M248.6,380.9H43.3c-3.6,0-6.5-2.9-6.5-6.5s2.9-6.5,6.5-6.5c0,0,0,0,0,0h205.2c3.6,0,6.5,2.9,6.5,6.5
	C255.1,378,252.2,380.9,248.6,380.9z"/>
<path class="st4" d="M275.4,402.9H43.3c-3.6,0-6.5-2.9-6.5-6.5c0-3.6,2.9-6.5,6.5-6.5c0,0,0,0,0,0h232.1c3.6,0,6.5,2.9,6.5,6.5
	C282,400,279.1,402.9,275.4,402.9C275.5,402.9,275.5,402.9,275.4,402.9z"/>
<path class="st4" d="M248.6,453.5H43.3c-3.6,0-6.5-2.9-6.5-6.5c0-3.6,2.9-6.5,6.5-6.5c0,0,0,0,0,0h205.2c3.6,0,6.5,2.9,6.5,6.5
	C255.1,450.5,252.2,453.5,248.6,453.5z"/>
<path class="st4" d="M275.4,475.5H43.3c-3.6,0-6.5-2.9-6.5-6.5c0-3.6,2.9-6.5,6.5-6.5c0,0,0,0,0,0h232.1c3.6,0,6.5,2.9,6.5,6.5
	C282,472.5,279.1,475.5,275.4,475.5C275.5,475.5,275.5,475.5,275.4,475.5z"/>
<path class="st0" d="M684.1,423l-291.2,0c-7.6,0-13.8-6.2-13.8-13.8l0-395.3c0-7.6,6.2-13.8,13.8-13.8l291.2,0
	c7.6,0,13.8,6.2,13.8,13.8l0,395.3C698,416.8,691.8,423,684.1,423z"/>
<path class="st4" d="M684.1,423l-291.2,0c-7.6,0-13.8-6.2-13.8-13.8l0-395.3c0-7.6,6.2-13.8,13.8-13.8l291.2,0
	c7.6,0,13.8,6.2,13.8,13.8l0,395.3C698,416.8,691.8,423,684.1,423z M392.9,1.6c-6.7,0-12.2,5.5-12.2,12.2l0,395.3
	c0,6.7,5.5,12.2,12.2,12.2l291.2,0c6.7,0,12.2-5.5,12.2-12.2l0-395.3c0-6.7-5.5-12.2-12.2-12.2L392.9,1.6z"/>
<path class="st0" d="M525.5,102.4c0,29.9-24.2,54.1-54.1,54.1c-29.9,0-54.1-24.2-54.1-54.1c0-29.9,24.2-54.1,54.1-54.1
	C501.3,48.3,525.5,72.5,525.5,102.4z"/>
<path class="st1" d="M496.4,111.6c-0.6,34.6-52,34.6-52.6,0C444.4,77,495.9,77,496.4,111.6z"/>
<path class="st2" d="M469.1,122.3l0-1c6.8,0.9,8.2-7.5,1.4-4.4l1.6-11.4l1,0.1l-1.3,9.7C478.9,114.4,476.2,123.3,469.1,122.3z"/>
<rect x="477.8" y="106.6" class="st2" width="5.3" height="1"/>
<rect x="461.1" y="106.6" class="st2" width="5.3" height="1"/>
<path class="st2" d="M478.7,148.4c1-7-7.1-5.6-11.4-5.7c-2.6,0-4.7,2.1-4.7,4.7c0,0.3,0,0.6,0.1,1c-3.3,1-6.4,2.7-9.1,5
	c11.2,3.9,23.4,4,34.6,0.4C485.4,151.3,482.2,149.5,478.7,148.4z"/>
<path class="st2" d="M457.8,99.2c4.9-2.8,10.8-0.7,15.8,0.5c9.6,2.9,23-0.7,24.1-12.1c1.2-10.6-13.3-16.5-17.9-6l1.3-0.2
	c-15-22.3-41.1-21.5-41,9.2c-0.1,0.9,1.4,0.9,1.5,0c-0.6-18.1,11.4-30.4,28.3-18.8c3.8,3,7.1,6.4,9.9,10.4c1.8,2,2.1-6.5,10.6-4.3
	c9.3,3.6,6.3,16.9-2,19.8c-10.2,5.2-21.3-4.9-31.4,0.2c-0.3,0.2-0.4,0.7-0.2,1C457,99.2,457.4,99.3,457.8,99.2L457.8,99.2z"/>
<path class="st4" d="M471.4,157.9c-30.7,0-55.5-24.9-55.5-55.6s24.9-55.5,55.6-55.5S527,71.8,527,102.4c0,24-15.5,45.3-38.4,52.8
	C483.1,157,477.3,157.9,471.4,157.9z M471.4,49.7c-29.1,0-52.6,23.6-52.6,52.6s23.6,52.6,52.6,52.6c29.1,0,52.6-23.6,52.6-52.6
	c0,0,0,0,0,0C524,73.3,500.5,49.8,471.4,49.7z"/>
<path class="st4" d="M627.8,102.7l-82.4,0c-3.6,0-6.5-2.9-6.5-6.5c0-3.6,2.9-6.5,6.5-6.5l82.4,0c3.6,0,6.5,2.9,6.5,6.5
	C634.3,99.8,631.4,102.7,627.8,102.7C627.8,102.7,627.8,102.7,627.8,102.7z"/>
<path class="st4" d="M654.6,124.7l-109.3,0c-3.6,0-6.5-2.9-6.5-6.5c0-3.6,2.9-6.5,6.5-6.5c0,0,0,0,0,0l109.3,0
	c3.6,0,6.5,2.9,6.5,6.5C661.2,121.8,658.2,124.7,654.6,124.7z"/>
<path class="st4" d="M627.6,209.1l-205.2,0c-3.6,0-6.5-2.9-6.5-6.5c0-3.6,2.9-6.5,6.5-6.5l205.2,0c3.6,0,6.5,2.9,6.5,6.5
	C634.2,206.1,631.2,209.1,627.6,209.1C627.6,209.1,627.6,209.1,627.6,209.1z"/>
<path class="st4" d="M654.5,231.1l-232.1,0c-3.6,0-6.5-2.9-6.5-6.5c0-3.6,2.9-6.5,6.5-6.5l232.1,0c3.6,0,6.5,2.9,6.5,6.5
	C661,228.2,658.1,231.1,654.5,231.1L654.5,231.1z"/>
<path class="st4" d="M627.6,281.6l-205.2,0c-3.6,0-6.5-2.9-6.5-6.5c0-3.6,2.9-6.5,6.5-6.5l205.2,0c3.6,0,6.5,2.9,6.5,6.5
	C634.2,278.7,631.2,281.6,627.6,281.6z"/>
<path class="st4" d="M654.5,303.6l-232.1,0c-3.6,0-6.5-2.9-6.5-6.5c0-3.6,2.9-6.5,6.5-6.5l232.1,0c3.6,0,6.5,2.9,6.5,6.5
	C661,300.7,658.1,303.6,654.5,303.6z"/>
<path class="st4" d="M627.6,354.2l-205.2,0c-3.6,0-6.5-2.9-6.5-6.5c0-3.6,2.9-6.5,6.5-6.5c0,0,0,0,0,0l205.2,0
	c3.6,0,6.5,2.9,6.5,6.5C634.2,351.3,631.2,354.2,627.6,354.2C627.6,354.2,627.6,354.2,627.6,354.2z"/>
<path class="st4" d="M654.5,376.2l-232.1,0c-3.6,0-6.5-2.9-6.5-6.5c0-3.6,2.9-6.5,6.5-6.5c0,0,0,0,0,0l232.1,0
	c3.6,0,6.5,2.9,6.5,6.5C661,373.3,658.1,376.2,654.5,376.2z"/>
<path class="st0" d="M508.4,593H217.2c-7.6,0-13.8-6.2-13.8-13.8V183.8c0-7.6,6.2-13.8,13.8-13.8h291.2c7.6,0,13.8,6.2,13.8,13.8
	v395.3C522.2,586.8,516.1,593,508.4,593z"/>
<path class="st0" d="M241.5,271.8c0,14.4,5.7,28.2,15.9,38.3c0.4,0.4,0.9,0.8,1.3,1.2c2.6,2.5,5.5,4.7,8.6,6.5
	c0.6,0.4,1.2,0.7,1.8,1.1c3.1,1.8,6.4,3.2,9.8,4.3c0.6,0.2,1.2,0.4,1.8,0.5c10.8,3.1,22.3,2.8,32.9-0.9c0.2-0.1,0.4-0.1,0.6-0.2
	c28.1-10.2,42.6-41.3,32.3-69.3s-41.3-42.6-69.3-32.3C255.7,228.7,241.5,249.1,241.5,271.8L241.5,271.8z"/>
<path class="st2" d="M284.2,298.3c0,4.2-1.5,8.2-4.3,11.3c-2.8,3.1-6.9,5.1-11.1,4.2c-3.8-0.8-7-4.1-6.6-8.2
	c0.2-3.3,3.2-5.9,6.5-5.6c0.3,0,0.7,0.1,1,0.2c3.7,0.9,5.1,6.2,2.1,8.7c-0.7,0.6-1.8-0.4-1-1c1.5-1.4,1.6-3.7,0.2-5.2
	c-0.4-0.4-0.8-0.7-1.3-0.9c-2.4-0.8-5,0.6-5.8,3c-0.1,0.4-0.2,0.7-0.2,1.1c-0.2,3.4,2.4,6,5.6,6.6c3.5,0.7,6.9-1.1,9.3-3.6
	c2.7-2.9,4.2-6.7,4.2-10.6c0-0.4,0.4-0.7,0.8-0.7C283.8,297.6,284.1,297.9,284.2,298.3z"/>
<circle class="st1" cx="298.6" cy="281.4" r="26.3"/>
<path class="st2" d="M297.2,292.6l0-1c1.8-0.1,3.4-0.2,4.7-1.1c0.7-0.5,1.1-1.3,1.2-2.2c0-0.5-0.2-1.1-0.6-1.4c-0.9-0.6-2.1-0.6-3,0
	l-0.8,0.4l1.6-11.4l1,0.1l-1.3,9.7c1.1-0.4,2.3-0.2,3.3,0.5c0.6,0.6,1,1.4,0.9,2.2c-0.1,1.2-0.6,2.3-1.6,3
	C300.9,292.5,298.8,292.6,297.2,292.6z"/>
<rect x="305.9" y="276.8" class="st2" width="5.3" height="1"/>
<rect x="289.2" y="276.8" class="st2" width="5.3" height="1"/>
<path class="st2" d="M280.6,323.8c10.8,3.1,22.3,2.8,32.9-0.9c0.2-0.1,0.4-0.1,0.6-0.2c-2.5-1.9-5.3-3.4-8.3-4.3
	c0.2-0.8,0.2-1.6,0-2.3c-0.6-2-2.4-3.3-4.5-3.3h-6.4c-2.1,0-3.9,1.3-4.5,3.3c-0.2,0.8-0.2,1.6,0,2.3c-2.7,0.8-5.2,2-7.4,3.6
	c-0.5,0.3-0.9,0.7-1.3,1C281.2,323.2,280.9,323.5,280.6,323.8z"/>
<path class="st2" d="M319.2,278.6c0,4.4,2.2,8.1,5,8.8c0.3,0.1,0.6,0.1,0.9,0.1c3.3,0,5.9-4,5.9-8.9c0.1-2.5-0.7-5-2.3-7
	c-0.5-0.6-1.1-1.1-1.7-1.4c-0.6-0.3-1.2-0.5-1.9-0.5c-0.9,0-1.8,0.3-2.5,0.8C320.6,272,319.2,275,319.2,278.6z"/>
<path class="st2" d="M266.6,278.6c0,3.8,1.6,7.1,3.9,8.3c0.6,0.3,1.3,0.5,2,0.5c0.2,0,0.3,0,0.5,0c3-0.4,5.4-4.2,5.4-8.8
	c0-3.7-1.5-6.9-3.7-8.2c-0.7-0.4-1.4-0.6-2.2-0.6c-0.7,0-1.3,0.2-1.9,0.5c-0.7,0.4-1.3,0.8-1.7,1.4
	C267.3,273.6,266.5,276.1,266.6,278.6z"/>
<path class="st2" d="M270.8,286c0.4,0,0.7-0.3,0.7-0.7c0-0.1,0-0.2,0-0.2c-5.1-15.1,3-31.4,18.1-36.4c15.1-5.1,31.4,3,36.4,18.1
	c1.6,4.9,1.9,10.1,0.9,15.1c-0.1,0.4,0.2,0.8,0.6,0.9c0.4,0.1,0.8-0.2,0.9-0.6c3.4-16.3-7-32.4-23.3-35.8s-32.4,7-35.8,23.3
	c-1.1,5.3-0.8,10.8,0.9,15.9C270.2,285.8,270.5,286,270.8,286z"/>
<path class="st2" d="M311.8,264.3c0.9,1.5,0.7,3.4-0.6,4.6c-1.4,1.6-3.7,1.7-5.7,1.4c-2.2-0.3-4.6-1.4-6.8-0.7
	c-1.9,0.6-3.3,2.3-5.3,2.8c-1.8,0.4-3.9-0.1-4.5-2c-0.3-0.9,1.1-1.3,1.4-0.4c0.4,1.2,2.1,1.2,3.1,0.9c1.6-0.5,2.8-1.9,4.4-2.5
	c1.9-0.6,3.8-0.6,5.7,0c1.8,0.4,3.8,1,5.6,0.2c1.3-0.5,2.3-2.3,1.4-3.6C309.9,264.3,311.2,263.6,311.8,264.3L311.8,264.3z"/>
<path class="st4" d="M295.6,327.4c-5.2,0-10.4-0.7-15.4-2.2c-0.6-0.2-1.2-0.4-1.8-0.6c-3.5-1.1-6.8-2.6-10-4.4
	c-0.6-0.3-1.2-0.7-1.8-1.1c-3.2-1.9-6.1-4.2-8.8-6.7c-0.4-0.4-0.9-0.8-1.3-1.3c-21.7-21.7-21.8-56.8-0.1-78.6
	c21.7-21.7,56.8-21.8,78.6-0.1c21.7,21.7,21.8,56.8,0.1,78.6c-5.7,5.8-12.7,10.2-20.3,13c-0.2,0.1-0.4,0.1-0.6,0.2
	C308,326.3,301.8,327.4,295.6,327.4z M295.6,219.2c-29.1,0-52.6,23.6-52.6,52.6c0,14,5.6,27.4,15.5,37.3c0.4,0.4,0.8,0.8,1.3,1.2
	c2.6,2.4,5.4,4.5,8.4,6.4c0.6,0.4,1.2,0.7,1.7,1c3,1.7,6.2,3.1,9.5,4.2c0.6,0.2,1.2,0.4,1.7,0.5c10.5,3,21.7,2.7,32-0.9l0.6-0.2
	c27.3-9.9,41.4-40.1,31.4-67.4C337.5,233,317.7,219.2,295.6,219.2L295.6,219.2z"/>
<path class="st2" d="M508.4,593H217.2c-7.6,0-13.8-6.2-13.8-13.8V183.8c0-7.6,6.2-13.8,13.8-13.8h291.2c7.6,0,13.8,6.2,13.8,13.8
	v395.3C522.2,586.8,516.1,593,508.4,593z M217.2,171.6c-6.7,0-12.2,5.5-12.2,12.2v395.3c0,6.7,5.5,12.2,12.2,12.2h291.2
	c6.7,0,12.2-5.5,12.2-12.2V183.8c0-6.7-5.5-12.2-12.2-12.2H217.2z"/>
<path class="st1" d="M452,272.7h-82.4c-3.6,0-6.5-2.9-6.5-6.5c0-3.6,2.9-6.5,6.5-6.5c0,0,0,0,0,0H452c3.6,0,6.5,2.9,6.5,6.5
	C458.6,269.8,455.7,272.7,452,272.7C452.1,272.7,452,272.7,452,272.7z"/>
<path class="st1" d="M478.9,294.7H369.6c-3.6,0-6.5-2.9-6.5-6.5c0-3.6,2.9-6.5,6.5-6.5c0,0,0,0,0,0h109.3c3.6,0,6.5,2.9,6.5,6.5
	C485.4,291.8,482.5,294.7,478.9,294.7z"/>
<path class="st4" d="M451.9,379.1H246.7c-3.6,0-6.5-2.9-6.5-6.5c0-3.6,2.9-6.5,6.5-6.5h205.2c3.6,0,6.5,2.9,6.5,6.5
	C458.4,376.2,455.5,379.1,451.9,379.1z"/>
<path class="st4" d="M478.8,401.1H246.7c-3.6,0-6.5-2.9-6.5-6.5c0-3.6,2.9-6.5,6.5-6.5h232.1c3.6,0,6.5,2.9,6.5,6.5
	C485.3,398.2,482.4,401.1,478.8,401.1z"/>
<path class="st4" d="M451.9,451.7H246.7c-3.6,0-6.5-2.9-6.5-6.5c0-3.6,2.9-6.5,6.5-6.5h205.2c3.6,0,6.5,2.9,6.5,6.5
	C458.4,448.7,455.5,451.7,451.9,451.7z"/>
<path class="st4" d="M478.8,473.7H246.7c-3.6,0-6.5-2.9-6.5-6.5c0-3.6,2.9-6.5,6.5-6.5h232.1c3.6,0,6.5,2.9,6.5,6.5
	C485.3,470.7,482.4,473.7,478.8,473.7z"/>
<path class="st4" d="M451.9,524.2H246.7c-3.6,0-6.5-2.9-6.5-6.5c0-3.6,2.9-6.5,6.5-6.5h205.2c3.6,0,6.5,2.9,6.5,6.5
	C458.4,521.3,455.5,524.2,451.9,524.2z"/>
<path class="st4" d="M478.8,546.2H246.7c-3.6,0-6.5-2.9-6.5-6.5c0-3.6,2.9-6.5,6.5-6.5h232.1c3.6,0,6.5,2.9,6.5,6.5
	C485.3,543.3,482.4,546.2,478.8,546.2C478.8,546.2,478.8,546.2,478.8,546.2z"/>
<path class="st1" d="M505,503c-35.5,0-64.2,28.8-64.2,64.2c0,35.5,28.8,64.2,64.2,64.2h0c35.5-0.1,64.2-28.9,64.1-64.3
	C569.1,531.7,540.4,503.1,505,503z"/>
<path id="ba2462e0-2d61-4715-874d-575d790dfdd0" class="st0" d="M498.9,593.9c-1.7,0-3.3-0.5-4.7-1.6l-0.1-0.1l-17.7-13.5
	c-3.4-2.6-4.1-7.6-1.4-11c2.6-3.4,7.6-4.1,11-1.5l11.4,8.8l27-35.3c2.6-3.4,7.6-4.1,11-1.5l0,0l0,0l0,0l-0.2,0.2l0.2-0.2
	c3.4,2.6,4.1,7.6,1.5,11l-31.8,41.5C503.7,592.8,501.4,593.9,498.9,593.9L498.9,593.9z"/>
</svg>
